<?xml version="1.0" encoding="UTF-8"?>
<svg width="37px" height="40px" viewBox="0 0 37 40" version="1.1" xmlns="http://www.w3.org/2000/svg" xmlns:xlink="http://www.w3.org/1999/xlink">
    <!-- Generator: Sketch 51.1 (57501) - http://www.bohemiancoding.com/sketch -->
    <title>Group</title>
    <desc>Created with Sketch.</desc>
    <defs></defs>
    <g id="Page-1" stroke="none" stroke-width="1" fill="none" fill-rule="evenodd">
        <g id="Group">
            <rect id="Path" fill="#FFFFFF" x="1" y="12" width="35" height="27"></rect>
            <text id="25" font-family="Gotham-Black, Gotham" font-size="18" font-weight="700" fill="#313541">
                <tspan x="7" y="32">25</tspan>
            </text>
            <rect id="Rectangle-5" fill="#EA5A5A" x="0" y="4" width="36" height="8"></rect>
            <rect id="Rectangle-8" fill="#23B1F7" x="7" y="1" width="5" height="6"></rect>
            <rect id="Rectangle-8-Copy" fill="#23B1F7" x="25" y="1" width="4" height="6"></rect>
            <path d="M34.9891304,40 L2.01086957,40 C0.900869565,40 0,39.104 0,38 L0,5.2 C0,4.096 0.900869565,3.2 2.01086957,3.2 L6.43478261,3.2 L6.43478261,2 C6.43478261,0.896 7.33565217,0 8.44565217,0 L10.8586957,0 C11.9686957,0 12.8695652,0.896 12.8695652,2 L12.8695652,6 C12.8695652,7.104 11.9686957,8 10.8586957,8 L8.44565217,8 C7.33565217,8 6.43478261,7.104 6.43478261,6 L6.43478261,4.8 L2.01086957,4.8 C1.78565217,4.8 1.60869565,4.976 1.60869565,5.2 L1.60869565,11.2 L35.3913043,11.2 L35.3913043,12.8 L1.60869565,12.8 L1.60869565,38 C1.60869565,38.224 1.78565217,38.4 2.01086957,38.4 L34.9891304,38.4 C35.2143478,38.4 35.3913043,38.224 35.3913043,38 L35.3913043,5.2 C35.3913043,4.976 35.2143478,4.8 34.9891304,4.8 L30.5652174,4.8 L30.5652174,3.2 L34.9891304,3.2 C36.0991304,3.2 37,4.096 37,5.2 L37,38 C37,39.104 36.0991304,40 34.9891304,40 Z M8.44565217,1.6 C8.22043478,1.6 8.04347826,1.776 8.04347826,2 L8.04347826,6 C8.04347826,6.224 8.22043478,6.4 8.44565217,6.4 L10.8586957,6.4 C11.083913,6.4 11.2608696,6.224 11.2608696,6 L11.2608696,2 C11.2608696,1.776 11.083913,1.6 10.8586957,1.6 L8.44565217,1.6 Z M28.5543478,8 L26.1413043,8 C25.0313043,8 24.1304348,7.104 24.1304348,6 L24.1304348,4.8 L12.8695652,4.8 L12.8695652,3.2 L24.1304348,3.2 L24.1304348,2 C24.1304348,0.896 25.0313043,0 26.1413043,0 L28.5543478,0 C29.6643478,0 30.5652174,0.896 30.5652174,2 L30.5652174,6 C30.5652174,7.104 29.6643478,8 28.5543478,8 Z M25.7391304,4.8 L25.7391304,6 C25.7391304,6.224 25.916087,6.4 26.1413043,6.4 L28.5543478,6.4 C28.7795652,6.4 28.9565217,6.224 28.9565217,6 L28.9565217,2 C28.9565217,1.776 28.7795652,1.6 28.5543478,1.6 L26.1413043,1.6 C25.916087,1.6 25.7391304,1.776 25.7391304,2 L25.7391304,4.8 Z" id="Calendar" fill="#313541" fill-rule="nonzero"></path>
        </g>
    </g>
</svg>