<svg viewBox="0 -16 512 512" xmlns="http://www.w3.org/2000/svg"><path d="m512 360-160 120h-291l-30-90 30-81.898438c28.800781-32.703124 63.300781-44.101562 90-44.101562 24.902344 0 49.800781 8.699219 69.300781 26.101562 5.398438 3.898438 8.699219 9.597657 16.800781 9.898438h.296876 93.601562v60h-135v30h164.097656l69.003906-45.300781c27.597657-18.300781 64.597657-10.5 82.898438 15.300781zm0 0" fill="#ffcebf"/><path d="m301 300h30v60h-30zm0 0" fill="#ffbfab"/><path d="m512 360-160 120h-51v-90h59.097656l69.003906-45.300781c27.597657-18.300781 64.597657-10.5 82.898438 15.300781zm0 0" fill="#ffbfab"/><path d="m368.800781 0c-33.902343 0-55.5 19.800781-67.800781 38.402344-14.097656-21-37.5-38.402344-67.800781-38.402344-46.199219 0-82.199219 40.800781-82.199219 90 0 58.800781 51 85.800781 139.199219 162.300781l10.800781 8.699219 9-8.699219c87.898438-76.199219 140.699219-105.902343 140.699219-162.300781 0-49.199219-36-90-81.898438-90zm0 0" fill="#ff6c6c"/><path d="m61 480h-61v-180h61zm0 0" fill="#68544f"/><path d="m310 252.300781-9 8.699219v-222.597656c12.300781-18.601563 33.898438-38.402344 67.800781-38.402344 45.898438 0 81.898438 40.800781 81.898438 90 0 56.398438-52.800781 86.101562-140.699219 162.300781zm0 0" fill="#ff4949"/></svg>