<?xml version="1.0" encoding="UTF-8"?>
<svg width="27px" height="27px" viewBox="0 0 27 27" version="1.1" xmlns="http://www.w3.org/2000/svg" xmlns:xlink="http://www.w3.org/1999/xlink">
    <!-- Generator: Sketch 51.1 (57501) - http://www.bohemiancoding.com/sketch -->
    <title>Group</title>
    <desc>Created with Sketch.</desc>
    <defs></defs>
    <g id="Page-1" stroke="none" stroke-width="1" fill="none" fill-rule="evenodd" stroke-linecap="round" stroke-linejoin="round">
        <g id="Group" transform="translate(1.000000, 1.000000)" fill="#778086" fill-rule="nonzero" stroke="#778086" stroke-width="0.5">
            <path d="M19.5,25 C16.47,25 14,22.5290116 14,19.4977991 C14,16.4665866 16.47,13.9955982 19.5,13.9955982 C22.53,13.9955982 25,16.4665866 25,19.4977991 C25,22.5290116 22.53,25 19.5,25 Z M19.5,14.9959984 C17.02,14.9959984 15,17.0168067 15,19.4977991 C15,21.9787915 17.02,23.9995998 19.5,23.9995998 C21.98,23.9995998 24,21.9787915 24,19.4977991 C24,17.0168067 21.98,14.9959984 19.5,14.9959984 Z M20,21.9987995 L19,21.9987995 L19,19.9979992 L17,19.9979992 L17,18.997599 L19,18.997599 L19,16.9967987 L20,16.9967987 L20,18.997599 L22,18.997599 L22,19.9979992 L20,19.9979992 L20,21.9987995 Z M13,20.9983994 L1.54,20.9983994 C0.63,20.9983994 0,20.2881152 0,19.2677071 L0,18.997599 C0,15.3161265 2.99,14.1256503 5.4,13.1752701 C5.66,13.0752301 5.92,12.9651861 6.17,12.8651461 C7.51,12.314926 7.51,11.8447379 7.51,11.2444978 C7.51,10.5542217 7.38,10.0540216 6.74,9.41376551 C5.8,8.47338936 5.01,7.5230092 5.01,5.49219688 C5.01,2.10084034 7.11,0 10.49,0 C13.9,0 16.01,2.10084034 16.01,5.49219688 C16.01,7.5030012 15.23,8.44337735 14.29,9.3837535 C13.6,10.0840336 13.55,10.6242497 13.55,11.1744698 C13.55,11.8147259 13.55,12.304922 14.94,12.8751501 C15.08,12.9351741 15.23,12.9951981 15.39,13.0452181 L15.81,13.2052821 L15.44,14.1356543 L15.03,13.9755902 C14.87,13.9155662 14.71,13.8555422 14.56,13.7955182 C12.55,12.9751901 12.55,11.8947579 12.55,11.1844738 C12.55,10.4241697 12.67,9.60384154 13.59,8.68347339 C14.45,7.82312925 15.01,7.13285314 15.01,5.49219688 C15.01,2.64105642 13.37,1.00040016 10.51,1.00040016 C7.64,1.00040016 6.01,2.64105642 6.01,5.49219688 C6.01,7.14285714 6.6,7.87314926 7.44,8.71348539 C8.38,9.65386154 8.51,10.4641857 8.51,11.1944778 C8.51,11.9447779 8.51,12.9951981 6.55,13.7955182 C6.3,13.8955582 6.04,14.0056022 5.77,14.1056423 C3.43,15.0360144 1,15.9963986 1,18.997599 L1,19.2677071 C1,19.4877951 1.05,19.9979992 1.54,19.9979992 L13,19.9979992 L13,20.9983994 Z" id="Add_User"></path>
        </g>
    </g>
</svg>