<?xml version="1.0" encoding="UTF-8"?>
<svg width="184px" height="107px" viewBox="0 0 184 107" version="1.1" xmlns="http://www.w3.org/2000/svg" xmlns:xlink="http://www.w3.org/1999/xlink">
    <!-- Generator: Sketch 51.2 (57519) - http://www.bohemiancoding.com/sketch -->
    <title>Group</title>
    <desc>Created with Sketch.</desc>
    <defs></defs>
    <g id="Page-1" stroke="none" stroke-width="1" fill="none" fill-rule="evenodd">
        <g id="Group" transform="translate(0.000000, -1.000000)">
            <g id="Democracy-Logo">
                <g id="Page-1">
                    <g id="Group">
                        <g id="Group-3" transform="translate(0.000000, 0.969584)" fill="#28A8DF">
                            <path d="M52.9138423,36.3087474 L41.3371115,36.3087474 L31.6075346,42.8598 L31.6089577,36.3087474 L6.21557308,36.3087474 L6.21557308,6.65848421 L52.9138423,6.65848421 L52.9138423,36.3087474 Z M53.5015731,0.451326316 L5.62784231,0.451326316 C2.51841923,0.451326316 -0.000426923077,2.96658947 -0.000426923077,6.07158947 L-0.000426923077,36.8956421 C-0.000426923077,39.9992211 2.51841923,42.5144842 5.62784231,42.5144842 L26.9882269,42.5144842 L26.9882269,51.9019579 L41.6217269,42.5144842 L53.5015731,42.5144842 C56.6095731,42.5144842 59.1284192,39.9992211 59.1284192,36.8956421 L59.1284192,6.07158947 C59.1284192,2.96658947 56.6095731,0.451326316 53.5015731,0.451326316 Z" id="Fill-1"></path>
                        </g>
                        <polygon id="Fill-4" fill="#28A8DF" points="29.5652769 12.8056737 32.7045846 19.1563579 39.7232 20.1766737 34.6442385 25.1190947 35.8424692 32.1021474 29.5652769 28.8053053 23.2866615 32.1021474 24.4848923 25.1190947 19.4045077 20.1766737 26.4245462 19.1563579"></polygon>
                        <polygon id="Fill-6" fill="#EE4136" points="0 107.548532 183.601115 107.548532 183.601115 88.2520579 0 88.2520579"></polygon>
                        <polygon id="Fill-8" fill="#EE4136" points="67.1123077 20.7165316 183.601115 20.7165316 183.601115 1.42005789 67.1123077 1.42005789"></polygon>
                        <polygon id="Fill-9" fill="#EE4136" points="67.1123077 49.6605316 183.601115 49.6605316 183.601115 30.3640579 67.1123077 30.3640579"></polygon>
                        <path d="M3.70128077,75.3214737 L4.98916538,75.3214737 C7.02843462,75.3214737 8.20816538,74.358 8.20816538,71.4633158 L8.20816538,66.3745263 C8.20816538,63.6418421 7.29597308,62.5177895 4.98916538,62.5177895 L3.70128077,62.5177895 L3.70128077,75.3214737 Z M-0.000142307692,59.2493684 L5.14997308,59.2493684 C9.38931923,59.2493684 11.7487808,61.0697368 11.9095885,65.9467895 L11.9095885,71.8924737 C11.7487808,76.7681053 9.38931923,78.5884737 5.14997308,78.5884737 L-0.000142307692,78.5884737 L-0.000142307692,59.2493684 Z" id="Fill-11" fill="#EE4136"></path>
                        <polygon id="Fill-12" fill="#EE4136" points="14.2424385 78.5889 14.2424385 59.2497947 24.3818615 59.2497947 24.3818615 62.5182158 17.9438615 62.5182158 17.9438615 66.9632684 22.8534769 66.9632684 22.8534769 70.2331105 17.9438615 70.2331105 17.9438615 75.3219 24.6508231 75.3219 24.6508231 78.5889"></polygon>
                        <polygon id="Fill-13" fill="#EE4136" points="27.0384615 79.0233158 27.0384615 59.6842105 32.2156154 59.6842105 35.5683846 72.3813158 35.6224615 72.3813158 38.9752308 59.6842105 44.1523846 59.6842105 44.1523846 79.0233158 40.9874615 79.0233158 40.9874615 63.8095263 40.9348077 63.8095263 36.9900385 79.0233158 34.2008077 79.0233158 30.2574615 63.8095263 30.2048077 63.8095263 30.2048077 79.0233158"></polygon>
                        <polygon id="Fill-13-Copy" fill="#EE4136" points="165.076923 79.0233158 165.076923 59.6842105 170.254077 59.6842105 173.606846 72.3813158 173.660923 72.3813158 177.013692 59.6842105 182.190846 59.6842105 182.190846 79.0233158 179.025923 79.0233158 179.025923 63.8095263 178.973269 63.8095263 175.0285 79.0233158 172.239269 79.0233158 168.295923 63.8095263 168.243269 63.8095263 168.243269 79.0233158"></polygon>
                        <path d="M50.6643846,73.5607895 C50.6643846,75.7051579 51.6036154,76.2934737 53.0793462,76.2934737 C54.5536538,76.2934737 55.4928846,75.7051579 55.4928846,73.5607895 L55.4928846,65.6853158 C55.4928846,63.5423684 54.5536538,62.9540526 53.0793462,62.9540526 C51.6036154,62.9540526 50.6643846,63.5423684 50.6643846,65.6853158 L50.6643846,73.5607895 Z M46.9615385,66.1670526 C46.9615385,61.3994211 49.4846538,59.6842105 53.0793462,59.6842105 C56.6726154,59.6842105 59.1943077,61.3994211 59.1943077,66.1670526 L59.1943077,73.0790526 C59.1943077,77.8466842 56.6726154,79.5604737 53.0793462,79.5604737 C49.4846538,79.5604737 46.9615385,77.8466842 46.9615385,73.0790526 L46.9615385,66.1670526 Z" id="Fill-14" fill="#EE4136"></path>
                        <path d="M154.549,73.5607895 C154.549,75.7051579 155.488231,76.2934737 156.963962,76.2934737 C158.438269,76.2934737 159.3775,75.7051579 159.3775,73.5607895 L159.3775,65.6853158 C159.3775,63.5423684 158.438269,62.9540526 156.963962,62.9540526 C155.488231,62.9540526 154.549,63.5423684 154.549,65.6853158 L154.549,73.5607895 Z M150.846154,66.1670526 C150.846154,61.3994211 153.369269,59.6842105 156.963962,59.6842105 C160.557231,59.6842105 163.078923,61.3994211 163.078923,66.1670526 L163.078923,73.0790526 C163.078923,77.8466842 160.557231,79.5604737 156.963962,79.5604737 C153.369269,79.5604737 150.846154,77.8466842 150.846154,73.0790526 L150.846154,66.1670526 Z" id="Fill-14-Copy" fill="#EE4136"></path>
                        <path d="M64.6977731,72.8569421 C64.6977731,75.0013105 65.6370038,75.5896263 67.1127346,75.5896263 C68.5884654,75.5896263 69.5262731,75.0013105 69.5262731,72.8569421 L69.5262731,71.5723105 L73.2276962,71.5723105 L73.2276962,72.3752053 C73.2276962,77.1428368 70.7060038,78.8566263 67.1127346,78.8566263 C63.5180423,78.8566263 60.9949269,77.1428368 60.9949269,72.3752053 L60.9949269,65.4632053 C60.9949269,60.6955737 63.5180423,58.9803632 67.1127346,58.9803632 C70.7060038,58.9803632 73.2276962,60.6955737 73.2276962,65.4632053 L73.2276962,65.5172053 L69.5262731,65.5172053 L69.5262731,64.9814684 C69.5262731,62.8385211 68.5884654,62.2502053 67.1127346,62.2502053 C65.6370038,62.2502053 64.6977731,62.8385211 64.6977731,64.9814684 L64.6977731,72.8569421 Z" id="Fill-15" fill="#EE4136"></path>
                        <path d="M79.2007769,67.6612895 L81.1048538,67.6612895 C82.7428154,67.6612895 83.7347,66.8569737 83.7347,64.9811842 C83.7347,63.1068158 82.7428154,62.3025 81.1048538,62.3025 L79.2007769,62.3025 L79.2007769,67.6612895 Z M84.1900846,78.5891842 L80.9725077,70.7151316 L79.2007769,70.7151316 L79.2007769,78.5891842 L75.4993538,78.5891842 L75.4993538,59.2486579 L80.8643538,59.2486579 C85.3171615,59.2486579 87.4361231,61.3930263 87.4361231,65.0351842 C87.4361231,67.4452895 86.5780077,69.1875 84.5131231,69.9648158 L88.1604692,78.5891842 L84.1900846,78.5891842 Z" id="Fill-16" fill="#EE4136"></path>
                        <path d="M94.7133115,71.2495895 L98.3876962,71.2495895 L96.59035,63.4281158 L96.5376962,63.4281158 L94.7133115,71.2495895 Z M89.4280038,78.5893263 L94.2308885,59.2488 L98.9782731,59.2488 L103.645965,78.5893263 L100.103927,78.5893263 L99.1661192,74.5180105 L94.0430423,74.5180105 L92.9970808,78.5893263 L89.4280038,78.5893263 Z" id="Fill-17" fill="#EE4136"></path>
                        <path d="M109.010538,73.5607895 C109.010538,75.7051579 109.948346,76.2934737 111.4255,76.2934737 C112.899808,76.2934737 113.839038,75.7051579 113.839038,73.5607895 L113.839038,72.2761579 L117.540462,72.2761579 L117.540462,73.0790526 C117.540462,77.8466842 115.018769,79.5604737 111.4255,79.5604737 C107.829385,79.5604737 105.307692,77.8466842 105.307692,73.0790526 L105.307692,66.1670526 C105.307692,61.3994211 107.829385,59.6842105 111.4255,59.6842105 C115.018769,59.6842105 117.540462,61.3994211 117.540462,66.1670526 L117.540462,66.2210526 L113.839038,66.2210526 L113.839038,65.6853158 C113.839038,63.5423684 112.899808,62.9540526 111.4255,62.9540526 C109.948346,62.9540526 109.010538,63.5423684 109.010538,65.6853158 L109.010538,73.5607895 Z" id="Fill-18" fill="#EE4136"></path>
                        <path d="M140.318231,73.5607895 C140.318231,75.7051579 141.256038,76.2934737 142.733192,76.2934737 C144.2075,76.2934737 145.146731,75.7051579 145.146731,73.5607895 L145.146731,72.2761579 L148.848154,72.2761579 L148.848154,73.0790526 C148.848154,77.8466842 146.326462,79.5604737 142.733192,79.5604737 C139.137077,79.5604737 136.615385,77.8466842 136.615385,73.0790526 L136.615385,66.1670526 C136.615385,61.3994211 139.137077,59.6842105 142.733192,59.6842105 C146.326462,59.6842105 148.848154,61.3994211 148.848154,66.1670526 L148.848154,66.2210526 L145.146731,66.2210526 L145.146731,65.6853158 C145.146731,63.5423684 144.2075,62.9540526 142.733192,62.9540526 C141.256038,62.9540526 140.318231,63.5423684 140.318231,65.6853158 L140.318231,73.5607895 Z" id="Fill-18-Copy" fill="#EE4136"></path>
                        <polygon id="Fill-19" fill="#EE4136" points="125.304769 67.4786842 128.444077 59.6842105 132.386 59.6842105 127.100692 71.2018421 127.100692 79.0233158 123.400692 79.0233158 123.400692 71.2018421 118.115385 59.6842105 122.058731 59.6842105"></polygon>
                        <polygon id="Fill-19-Copy" fill="#EE4136" points="134.623077 75.3157895 134.623077 78.8741053 130.923077 78.8741053 130.923077 75.3157895"></polygon>
                    </g>
                </g>
            </g>
        </g>
    </g>
</svg>