<?xml version="1.0" encoding="UTF-8"?>
<svg width="25px" height="33px" viewBox="0 0 25 33" version="1.1" xmlns="http://www.w3.org/2000/svg" xmlns:xlink="http://www.w3.org/1999/xlink">
    <!-- Generator: Sketch 51.1 (57501) - http://www.bohemiancoding.com/sketch -->
    <title>Group 2</title>
    <desc>Created with Sketch.</desc>
    <defs></defs>
    <g id="Page-1" stroke="none" stroke-width="1" fill="none" fill-rule="evenodd">
        <g id="Group-2" transform="translate(2.000000, 2.000000)">
            <g id="Group">
                <path d="M19,22.2192308 L20.3,26.4 L1.4,26.4 L2,22.3454107 C5.47285934,22.9124757 7.47285934,22.5370824 8,21.2192308 C10,16.2192308 7,13.2192308 6,12.2192308 C5,11.2192308 4.51449128,11.1889285 3.6336144,10.2192308 C3.61932706e-13,6.21923077 9,6.21923077 11,6.21923077 C13,6.21923077 20,6.21923077 17.7692308,10.2192308 C17,11.2192308 15.9483341,10.2904182 15,12.2192308 C14.0516659,14.1480433 12,15.2192308 13,21.2192308 C13.6666667,22.5525641 15.6666667,22.8858974 19,22.2192308 Z" id="Rectangle-9" fill="#DB4B3B"></path>
                <path d="M1.1,26.397619 C1.1,22.6917334 2.06513647,20.7055809 4.45392098,17.8518236 C5.78921075,16.2530741 6.11838235,15.6631146 6.11838235,14.6 C6.11838235,13.5368854 5.78921075,12.9469259 4.45689303,11.3517182 C2.08126603,8.53395026 1.1,6.51219508 1.1,2.80238095 L1.1,1.1 L20.1625,1.1 L20.1625,2.80238095 C20.1625,6.01174965 19.2843099,8.21412052 17.5485334,10.4385511 C17.3395186,10.7064076 17.1849145,10.8953346 16.808579,11.3481764 C15.4732893,12.9469259 15.1441176,13.5368854 15.1441176,14.6 C15.1441176,15.6631146 15.4732893,16.2530741 16.805607,17.8482818 C19.181234,20.6660497 20.1625,22.6878049 20.1625,26.397619 L20.1625,28.1 L1.1,28.1 L1.1,26.397619 Z" id="Hourglass-Copy" stroke="#313541" stroke-width="2" fill-rule="nonzero"></path>
                <path d="M0.6875,28.625 L1,28.625 L1,27.9375 L0.6875,27.9375 L0.34375,28.28125 L0.6875,28.625 Z M20,28.625 L20.3125,28.625 L20.65625,28.28125 L20.3125,27.9375 L20,27.9375 L20,28.625 Z M-1,26.625 L22,26.625 L22,29.9375 L-1,29.9375 L-1,26.625 Z" id="Hourglass-path" stroke="#313541" stroke-width="2" fill="#23B1F7"></path>
                <path d="M0.6875,1 L1,1 L1,0.3125 L0.6875,0.3125 L0.34375,0.65625 L0.6875,1 Z M20,1 L20.3125,1 L20.65625,0.65625 L20.3125,0.3125 L20,0.3125 L20,1 Z M-1,-1 L22,-1 L22,2.3125 L-1,2.3125 L-1,-1 Z" id="Hourglass-path" stroke="#313541" stroke-width="2" fill="#23B1F7"></path>
            </g>
        </g>
    </g>
</svg>