<?xml version="1.0" encoding="UTF-8"?>
<svg width="20px" height="20px" viewBox="0 0 20 20" version="1.1" xmlns="http://www.w3.org/2000/svg" xmlns:xlink="http://www.w3.org/1999/xlink">
    <!-- Generator: Sketch 51.2 (57519) - http://www.bohemiancoding.com/sketch -->
    <title>Group</title>
    <desc>Created with Sketch.</desc>
    <defs></defs>
    <g id="Page-1" stroke="none" stroke-width="1" fill="none" fill-rule="evenodd">
        <g id="Group" fill="#505050" fill-rule="nonzero">
            <path d="M14.8545164,12.6307385 C14.6065412,12.5347481 14.3665652,12.4387577 14.1345883,12.3427673 C12.7987218,11.7988216 12.7987218,11.2948719 12.7987218,10.6469367 C12.7987218,10.022999 12.926709,9.5110501 13.5586459,8.87911322 C14.4545564,7.98320269 15.1984821,7.08729217 15.1984821,5.19148151 C15.1984821,1.99180107 13.206681,0 9.99100217,0 C6.79132173,0 4.80751986,1.99180107 4.80751986,5.19148151 C4.80751986,7.11928898 5.55144556,8.0151995 6.44735608,8.90311082 C7.08729217,9.53504771 7.20728019,10.0309982 7.20728019,10.7109303 C7.20728019,11.2948719 7.20728019,11.7988216 5.8714136,12.3427673 C5.63943677,12.4387577 5.39146154,12.5347481 5.1434863,12.6387377 C2.85571479,13.5426475 0,14.6705348 0,18.1501873 L0,18.4141609 C0,19.3420683 0.575942479,19.9900035 1.39986019,19.9900035 L18.6061417,19.9900035 C19.4220603,19.9900035 19.9980027,19.3420683 19.9980027,18.4141609 L19.9980027,18.1501873 C19.9980027,14.6705348 17.1422879,13.5426475 14.8545164,12.6307385 Z" id="User"></path>
        </g>
    </g>
</svg>