<?xml version="1.0" encoding="UTF-8"?>
<svg width="25px" height="23px" viewBox="0 0 25 23" version="1.1" xmlns="http://www.w3.org/2000/svg" xmlns:xlink="http://www.w3.org/1999/xlink">
    <!-- Generator: Sketch 51.1 (57501) - http://www.bohemiancoding.com/sketch -->
    <title>Group</title>
    <desc>Created with Sketch.</desc>
    <defs></defs>
    <g id="Page-1" stroke="none" stroke-width="1" fill="none" fill-rule="evenodd">
        <g id="Group" fill="#F0AD4E" fill-rule="nonzero">
            <path d="M24.7213625,19.95 L14.1313625,1.02 C13.7713625,0.38 13.1513625,0 12.4513625,0 C11.7913625,0 11.1913625,0.36 10.8613625,0.96 L0.27136249,19.95 C-0.09863751,20.6 -0.08863751,21.41 0.29136249,22.05 C0.64136249,22.64 1.24136249,23 1.91136249,23 L23.1013625,23 C23.7613625,23 24.3713625,22.65 24.7213625,22.05 C25.0813625,21.41 25.0813625,20.61 24.7213625,19.95 Z M13.9913625,13.75 C13.9913625,13.89 13.8813625,14 13.7413625,14 L11.2413625,14 C11.1013625,14 10.9913625,13.89 10.9913625,13.75 L10.9913625,7.25 C10.9913625,7.11 11.1013625,7 11.2413625,7 L13.7413625,7 C13.8813625,7 13.9913625,7.11 13.9913625,7.25 L13.9913625,13.75 Z M12.4613625,19.59 C11.3613625,19.59 10.4613625,18.69 10.4613625,17.59 C10.4613625,16.49 11.3613625,15.59 12.4613625,15.59 C13.5613625,15.59 14.4613625,16.49 14.4613625,17.59 C14.4613625,18.69 13.5613625,19.59 12.4613625,19.59 Z" id="Warning-Copy"></path>
        </g>
    </g>
</svg>