<?xml version="1.0" encoding="UTF-8"?>
<svg width="20px" height="20px" viewBox="0 0 20 20" version="1.1" xmlns="http://www.w3.org/2000/svg" xmlns:xlink="http://www.w3.org/1999/xlink">
    <!-- Generator: Sketch 51.2 (57519) - http://www.bohemiancoding.com/sketch -->
    <title>Group</title>
    <desc>Created with Sketch.</desc>
    <defs></defs>
    <g id="Page-1" stroke="none" stroke-width="1" fill="none" fill-rule="evenodd">
        <g id="Group" fill="#505050" fill-rule="nonzero">
            <path d="M20.0200005,13.8227621 C20.0200005,14.1108197 19.8439653,14.3748724 19.5559077,14.5509076 L10.8821745,19.7839533 C10.6341249,19.9279821 10.3300642,19.9999965 10.0180018,19.9999965 C9.71394107,19.9999965 9.40187871,19.9279821 9.16183075,19.7839533 L0.488097533,14.5589092 C0.200039973,14.382874 0.0320063956,14.1108197 0.0320063956,13.8227621 C0.0320063956,13.5347045 0.208041572,13.2706518 0.496099132,13.0946166 L1.4482894,12.5104999 L8.65773001,16.8553681 C9.04980836,17.0954161 9.52990429,17.2234416 10.0180018,17.2234416 C10.514101,17.2234416 10.9861953,17.0954161 11.3782736,16.8633697 L18.6117191,12.5104999 L19.5639093,13.0786134 C19.8599685,13.2626502 20.0200005,13.5347045 20.0200005,13.8227621 Z M0.480095934,7.08541583 L9.15382915,12.3104599 C9.40187871,12.4544887 9.70593947,12.5345047 10.0100002,12.5345047 C10.314061,12.5345047 10.6261233,12.4624903 10.8661713,12.3104599 L19.5399045,7.08541583 C19.8359637,6.90938065 20.0039973,6.63732629 20.0039973,6.34926873 C20.0039973,6.06121117 19.8359637,5.78915681 19.5479061,5.60512003 L10.8581697,0.228045569 C10.3700722,-0.0760151896 9.63392508,-0.0760151896 9.14582755,0.228045569 L0.456091138,5.59711843 C0.168033577,5.78115521 0,6.04520797 0,6.34126713 C0.0160031978,6.64532789 0.184036775,6.90938065 0.480095934,7.08541583 Z M0.480095934,10.8061593 L9.15382915,16.039205 C9.40187871,16.1832338 9.70593947,16.2632498 10.0180018,16.2632498 C10.3300642,16.2632498 10.6341249,16.1912354 10.8821745,16.039205 L19.5559077,10.8141609 C19.8519669,10.6381257 20.0200005,10.374073 20.0200005,10.0780138 C20.0200005,9.78995626 19.8599685,9.5179019 19.5719109,9.33386512 L18.6597286,8.7417468 L11.370272,13.126623 C10.9861953,13.3586694 10.5060994,13.486695 10.0180018,13.486695 C9.52990429,13.486695 9.04980836,13.3586694 8.66573161,13.126623 L1.36027181,8.7257436 L0.472094335,9.28585553 C0.184036775,9.4618907 0.0160031978,9.75794986 0.0240047967,10.054009 C0.0160031978,10.3500682 0.192038374,10.6301241 0.480095934,10.8061593 Z" id="Stack_Layers"></path>
        </g>
    </g>
</svg>