<?xml version="1.0" encoding="UTF-8"?>
<svg width="20px" height="20px" viewBox="0 0 20 20" version="1.1" xmlns="http://www.w3.org/2000/svg" xmlns:xlink="http://www.w3.org/1999/xlink">
    <!-- Generator: Sketch 51.2 (57519) - http://www.bohemiancoding.com/sketch -->
    <title>Group</title>
    <desc>Created with Sketch.</desc>
    <defs></defs>
    <g id="Page-1" stroke="none" stroke-width="1" fill="none" fill-rule="evenodd">
        <g id="Group" fill-rule="nonzero">
            <g id="icon-newpage" fill="#FFFFFF">
                <path d="M10,0 C4.488,0 0,4.488 0,10 C0,15.512 4.488,20 10,20 C15.512,20 20,15.512 20,10 C20,4.488 15.512,0 10,0 Z M14.4,10.4 L10.4,10.4 L10.4,14.4 L9.6,14.4 L9.6,10.4 L5.6,10.4 L5.6,9.6 L9.6,9.6 L9.6,5.6 L10.4,5.6 L10.4,9.6 L14.4,9.6 L14.4,10.4 Z" id="Plus_Circle"></path>
            </g>
            <path d="M5.5,9.5 L14.5,9.5" id="Line" stroke="#3BCE95" stroke-linecap="square"></path>
            <path d="M5.5,10.5 L14.5,10.5" id="Line-2" stroke="#3BCE95" stroke-linecap="square"></path>
            <path d="M9.5,5.5 L9.5,14.5" id="Line-3" stroke="#3BCE95" stroke-linecap="square"></path>
            <path d="M10.5,5.5 L10.5,14.5" id="Line-4" stroke="#3BCE95" stroke-linecap="square"></path>
        </g>
    </g>
</svg>