<?xml version="1.0" encoding="UTF-8"?>
<svg width="51px" height="51px" viewBox="0 0 51 51" version="1.1" xmlns="http://www.w3.org/2000/svg" xmlns:xlink="http://www.w3.org/1999/xlink">
    <!-- Generator: Sketch 51.1 (57501) - http://www.bohemiancoding.com/sketch -->
    <title>Group</title>
    <desc>Created with Sketch.</desc>
    <defs></defs>
    <g id="Page-1" stroke="none" stroke-width="1" fill="none" fill-rule="evenodd">
        <g id="Group">
            <circle id="Oval" fill="#2F7DAD" cx="25.5" cy="25.5" r="25.5"></circle>
            <path d="M35.7684524,25.0397644 C34.8779762,25.0397644 34.0482143,24.7562592 33.339881,24.25 C32.6416667,24.7562592 31.8220238,25.0397644 30.9416667,25.0397644 C30.0613095,25.0397644 29.2214286,24.7562592 28.5333333,24.2601252 C27.835119,24.7562592 26.9952381,25.0397644 26.125,25.0397644 C25.2446429,25.0397644 24.4047619,24.7562592 23.7065476,24.2601252 C23.0184524,24.7562592 22.1785714,25.0397644 21.2982143,25.0397644 C20.4178571,25.0397644 19.5779762,24.7562592 18.8797619,24.25 C18.1815476,24.7562592 17.3315476,25.0397644 16.4410714,25.0397644 C16.0970238,25.0397644 15.8642857,24.9992636 15.5303571,24.9182622 C15.5202381,24.9182622 15.510119,24.908137 15.5,24.908137 L15.5,36.7039764 C15.5,37.392489 16.147619,38 16.8863095,38 L18.5357143,38 L18.5357143,31.4186303 C18.5357143,31.1351252 18.7583333,30.9123711 19.0416667,30.9123711 L23.0892857,30.9123711 C23.372619,30.9123711 23.5952381,31.1351252 23.5952381,31.4186303 L23.5952381,38 L35.3636905,38 C36.102381,38 36.75,37.392489 36.75,36.7039764 L36.75,24.8980118 C36.4160714,24.9891384 36.1125,25.0397644 35.7684524,25.0397644 Z M33,31.25 C33,31.53 32.7642857,31.75 32.4642857,31.75 L26.0357143,31.75 C25.7357143,31.75 25.5,31.53 25.5,31.25 L25.5,27.25 C25.5,26.97 25.7357143,26.75 26.0357143,26.75 L32.4642857,26.75 C32.7642857,26.75 33,26.97 33,27.25 L33,31.25 Z M37.49,18.6659091 L34.27,13.2454545 C34.18,13.0920455 34.02,13 33.84,13 L17.19,13 C17.01,13 16.85,13.0920455 16.76,13.2454545 L13.5,18.7272727 C13.26,19.1670455 13,19.9034091 13,20.4659091 L13,21.1511364 C13,22.5931818 13.91,23.8306818 15.22,24.1579545 C16.44,24.4647727 17.67,23.9534091 18.34,22.9511364 C18.87,23.7386364 19.76,24.25 20.73,24.25 C21.7,24.25 22.59,23.7386364 23.11,22.9511364 C23.64,23.7386364 24.53,24.25 25.5,24.25 C26.46,24.25 27.35,23.7488636 27.88,22.9511364 C28.4,23.7488636 29.29,24.25 30.26,24.25 C31.23,24.25 32.12,23.7386364 32.64,22.9409091 C33.33,23.9534091 34.6,24.475 35.82,24.1477273 C37.1,23.8102273 38,22.5625 38,21.1409091 L38,20.4659091 C38,19.9136364 37.74,19.1363636 37.49,18.6659091 Z" id="Store" fill="#FFFFFF" fill-rule="nonzero"></path>
        </g>
    </g>
</svg>