<?xml version="1.0" encoding="UTF-8"?>
<svg width="19px" height="27px" viewBox="0 0 19 27" version="1.1" xmlns="http://www.w3.org/2000/svg" xmlns:xlink="http://www.w3.org/1999/xlink">
    <!-- Generator: Sketch 51.1 (57501) - http://www.bohemiancoding.com/sketch -->
    <title>Group</title>
    <desc>Created with Sketch.</desc>
    <defs></defs>
    <g id="Page-1" stroke="none" stroke-width="1" fill="none" fill-rule="evenodd" stroke-linecap="round" stroke-linejoin="round">
        <g id="Group" transform="translate(1.000000, 1.000000)" fill="#DB4B3B" fill-rule="nonzero" stroke="#DB4B3B" stroke-width="0.5">
            <path d="M4.35252655,5.35785686 L3.64211417,4.64814074 L8.14472783,0.149940024 C8.344844,-0.049980008 8.65502405,-0.049980008 8.85514021,0.149940024 L13.3577539,4.64814074 L12.6473415,5.35785686 L8.99522153,1.70931627 L8.99522153,17.0031987 L7.99464071,17.0031987 L7.99464071,1.71931228 L4.35252655,5.35785686 Z M15.7591478,9.00639744 L11.006389,9.00639744 L11.006389,10.0059976 L15.7591478,10.0059976 C15.8992291,10.0059976 16.009293,10.1159536 16.009293,10.2558976 L16.009293,23.7504998 C16.009293,23.8904438 15.8892233,24.0003998 15.7591478,24.0003998 L1.25072602,24.0003998 C1.1106447,24.0003998 1.00058081,23.8904438 1.00058081,23.7504998 L1.00058081,10.2558976 C1.00058081,10.1159536 1.1106447,10.0059976 1.25072602,10.0059976 L6.00348489,10.0059976 L6.00348489,9.00639744 L1.25072602,9.00639744 C0.560325256,9.00639744 0,9.56617353 0,10.2558976 L0,23.7504998 C0,24.4402239 0.560325256,25 1.25072602,25 L15.749142,25 C16.4395428,25 16.999868,24.4402239 16.999868,23.7504998 L16.999868,10.2558976 C17.0098739,9.56617353 16.4495486,9.00639744 15.7591478,9.00639744 Z" id="Share_3"></path>
        </g>
    </g>
</svg>