<?xml version="1.0" encoding="UTF-8"?>
<svg width="24px" height="24px" viewBox="0 0 24 24" version="1.1" xmlns="http://www.w3.org/2000/svg" xmlns:xlink="http://www.w3.org/1999/xlink">
    <!-- Generator: Sketch 51.2 (57519) - http://www.bohemiancoding.com/sketch -->
    <title>Shape</title>
    <desc>Created with Sketch.</desc>
    <defs></defs>
    <g id="Page-1" stroke="none" stroke-width="1" fill="none" fill-rule="evenodd">
        <g id="social-instagram" fill="#778086" fill-rule="nonzero">
            <path d="M12.0026771,5.84670311 C8.59743447,5.84670311 5.85075293,8.59399755 5.85075293,12 C5.85075293,15.4060025 8.59743447,18.1532969 12.0026771,18.1532969 C15.4079197,18.1532969 18.1546012,15.4060025 18.1546012,12 C18.1546012,8.59399755 15.4079197,5.84670311 12.0026771,5.84670311 Z M12.0026771,16.0004463 C9.80211935,16.0004463 8.00312326,14.2064041 8.00312326,12 C8.00312326,9.79359589 9.7967652,7.99955372 12.0026771,7.99955372 C14.208589,7.99955372 16.0022309,9.79359589 16.0022309,12 C16.0022309,14.2064041 14.2032348,16.0004463 12.0026771,16.0004463 Z M19.8411601,5.59500167 C19.8411601,6.39294879 19.1986615,7.03023541 18.4062465,7.03023541 C17.6084774,7.03023541 16.971333,6.38759344 16.971333,5.59500167 C16.971333,4.80240991 17.6138316,4.15976793 18.4062465,4.15976793 C19.1986615,4.15976793 19.8411601,4.80240991 19.8411601,5.59500167 Z M23.9156721,7.05165681 C23.8246514,5.12908624 23.3856107,3.42608502 21.9774679,2.02298338 C20.5746793,0.619881736 18.872058,0.180743055 16.9499163,0.0843467589 C14.968879,-0.0281155863 9.03112103,-0.0281155863 7.05008366,0.0843467589 C5.13329615,0.175387705 3.43067485,0.614526386 2.02253207,2.01762803 C0.614389292,3.42072967 0.180702733,5.12373089 0.084327942,7.04630146 C-0.028109314,9.02778088 -0.028109314,14.9668638 0.084327942,16.9483432 C0.175348578,18.8709138 0.614389292,20.573915 2.02253207,21.9770166 C3.43067485,23.3801183 5.127942,23.8192569 7.05008366,23.9156532 C9.03112103,24.0281156 14.968879,24.0281156 16.9499163,23.9156532 C18.872058,23.8246123 20.5746793,23.3854736 21.9774679,21.9770166 C23.3802566,20.573915 23.8192973,18.8709138 23.9156721,16.9483432 C24.0281093,14.9668638 24.0281093,9.03313623 23.9156721,7.05165681 Z M21.3563859,19.074417 C20.9387619,20.1240656 20.1302844,20.9327234 19.0755159,21.3557961 C17.4960402,21.982372 13.7481316,21.8377775 12.0026771,21.8377775 C10.2572225,21.8377775 6.50395984,21.9770166 4.92983826,21.3557961 C3.88042387,20.9380788 3.07194646,20.129421 2.64896821,19.074417 C2.02253207,17.4945889 2.16709426,13.745844 2.16709426,12 C2.16709426,10.254156 2.02788622,6.50005578 2.64896821,4.92558295 C3.0665923,3.8759344 3.87506972,3.06727658 4.92983826,2.64420395 C6.509314,2.01762803 10.2572225,2.16222247 12.0026771,2.16222247 C13.7481316,2.16222247 17.5013943,2.02298338 19.0755159,2.64420395 C20.1249303,3.06192123 20.9334077,3.87057905 21.3563859,4.92558295 C21.9828221,6.50541113 21.8382599,10.254156 21.8382599,12 C21.8382599,13.745844 21.9828221,17.4999442 21.3563859,19.074417 Z" id="Shape"></path>
        </g>
    </g>
</svg>