<?xml version="1.0" encoding="UTF-8"?>
<svg width="24px" height="20px" viewBox="0 0 24 20" version="1.1" xmlns="http://www.w3.org/2000/svg" xmlns:xlink="http://www.w3.org/1999/xlink">
    <!-- Generator: Sketch 51.2 (57519) - http://www.bohemiancoding.com/sketch -->
    <title>Group</title>
    <desc>Created with Sketch.</desc>
    <defs></defs>
    <g id="Page-1" stroke="none" stroke-width="1" fill="none" fill-rule="evenodd">
        <g id="social-twitter" fill="#778086" fill-rule="nonzero">
            <g id="Group">
                <path d="M21.5330529,4.89373218 C21.5482873,5.10849465 21.5482873,5.32330435 21.5482873,5.53806682 C21.5482873,12.0886055 16.5990648,19.6363636 7.55332638,19.6363636 C4.76650299,19.6363636 2.17768038,18.8232601 0,17.4119571 C0.395954672,17.4579506 0.776628034,17.4732976 1.18781714,17.4732976 C3.48727925,17.4732976 5.60406877,16.6909351 7.29443474,15.3562722 C5.1319888,15.3102315 3.31979422,13.8835343 2.69541678,11.9198838 C3.00001172,11.9658774 3.30455978,11.9965712 3.62438916,11.9965712 C4.06600026,11.9965712 4.50765823,11.9351835 4.91880046,11.8278495 C2.66499479,11.3675835 0.974581932,9.37328634 0.974581932,6.96476395 L0.974581932,6.90342348 C1.62938136,7.27160795 2.39086871,7.50171735 3.19791874,7.53236397 C1.87303857,6.64257302 1.0050508,5.12384158 1.0050508,3.40564736 C1.0050508,2.48520979 1.24866113,1.6414596 1.67508467,0.905090653 C4.09642225,3.91190692 7.73604584,5.87551023 11.8172337,6.09031992 C11.7411084,5.72213544 11.6954051,5.33865127 11.6954051,4.95511987 C11.6954051,2.22440655 13.8883199,0 16.6142055,0 C18.0304454,0 19.3096223,0.598293868 20.2081258,1.56477221 C21.3197708,1.35000974 22.3857593,0.935784498 23.3299661,0.368184474 C22.9644335,1.51877866 22.1878054,2.48525701 21.1675202,3.09885058 C22.1573834,2.99151656 23.1167778,2.71531918 24,2.331835 C23.3300599,3.31361305 22.4924472,4.18800986 21.5330529,4.89373218 Z" id="Shape"></path>
            </g>
        </g>
    </g>
</svg>