<svg version="1.1" id="Layer_1" xmlns="http://www.w3.org/2000/svg" xmlns:xlink="http://www.w3.org/1999/xlink" x="0px" y="0px"
	 width="100%" viewBox="0 0 800 800" enable-background="new 0 0 800 800" xml:space="preserve">
<path fill="#1D1C2E" opacity="1.000000" stroke="none" 
	d="
M435.000000,0.999999 
	C435.444458,1.000000 435.888885,1.000000 436.816528,1.352332 
	C439.828308,2.161277 442.346375,2.689682 444.887207,3.063361 
	C469.311279,6.655389 493.765503,10.348468 517.129395,18.585413 
	C536.615723,25.455311 556.056580,32.639633 574.931824,41.005993 
	C594.448975,49.656807 613.126221,60.215042 630.041199,73.385994 
	C646.439148,86.154381 662.744812,99.104729 678.296143,112.872963 
	C687.551819,121.067383 695.431824,130.854919 703.638550,140.182938 
	C710.716675,148.228226 717.838867,156.303299 724.146057,164.945724 
	C744.899170,193.382889 761.925720,223.910385 774.498840,256.871307 
	C786.647888,288.720428 795.246704,321.430298 799.087952,355.348938 
	C799.232178,356.621796 800.340820,357.785461 801.000000,359.000000 
	C801.000000,386.687561 801.000000,414.375122 800.693970,442.624725 
	C799.879883,444.004150 799.049500,444.771179 798.912598,445.646606 
	C797.155090,456.887207 795.665710,468.171753 793.778809,479.389709 
	C789.463135,505.048279 781.000183,529.575256 771.415833,553.570984 
	C764.862549,569.977844 756.087585,585.546875 747.673096,601.149231 
	C734.814026,624.992737 718.843872,646.794250 700.580017,666.701599 
	C687.579102,680.872375 673.609192,694.240479 659.285278,707.090088 
	C640.005615,724.385437 618.421204,738.647461 595.776062,751.164978 
	C566.702515,767.235840 536.228088,780.095276 503.895691,787.962280 
	C487.521454,791.946411 470.807098,794.523193 454.272827,797.866211 
	C450.459869,798.637085 446.754730,799.941223 443.000000,801.000000 
	C441.285645,801.000000 439.571289,801.000000 437.420654,800.811157 
	C436.656219,800.748230 436.328125,800.874146 436.000000,801.000000 
	C435.555542,801.000000 435.111115,801.000000 434.325500,800.811157 
	C433.656219,800.748230 433.328125,800.874084 433.000000,801.000000 
	C412.312439,801.000000 391.624878,801.000000 370.452881,800.815186 
	C369.645599,800.753601 369.322815,800.876770 369.000000,801.000000 
	C367.933319,801.000000 366.866669,801.000000 365.392151,800.811157 
	C364.656250,800.748230 364.328125,800.874146 364.000000,801.000000 
	C362.611115,801.000000 361.222198,801.000000 359.321869,800.696594 
	C357.997559,799.878235 357.234467,799.030884 356.364014,798.900635 
	C348.979401,797.795959 341.519470,797.118896 334.189178,795.743347 
	C321.182495,793.302490 308.041229,791.199097 295.343964,787.590576 
	C281.269745,783.590820 267.652313,777.997803 253.795441,773.216003 
	C234.398392,766.522461 216.154083,757.243103 198.768036,746.622803 
	C181.870941,736.301208 165.580170,724.837830 149.865524,712.778137 
	C137.779037,703.502930 126.756668,692.778015 115.728569,682.209961 
	C108.918121,675.683594 102.784515,668.410156 96.708420,661.168884 
	C89.497070,652.574585 82.284813,643.931641 75.784103,634.803345 
	C68.218102,624.179321 60.990685,613.258850 54.415577,602.000244 
	C48.059841,591.117188 41.930431,579.967651 37.118530,568.348450 
	C29.781548,550.631836 23.154488,532.576111 17.216307,514.341858 
	C13.500710,502.932434 11.602530,490.931122 9.008448,478.801666 
	C11.208370,477.584900 13.287786,476.044647 15.369200,476.041962 
	C107.671150,475.922577 199.973282,475.936462 292.275391,475.943451 
	C298.971832,475.943970 298.986816,476.023956 299.072327,482.562836 
	C299.331421,502.371582 298.728058,522.240845 300.075806,541.976196 
	C303.202057,587.755493 336.745361,626.307495 381.413757,635.305542 
	C393.835052,637.807739 406.874908,637.575195 419.649170,637.917419 
	C444.583588,638.585754 466.866394,630.617310 486.473022,615.450928 
	C491.450439,611.600769 495.357208,606.366516 500.032135,601.585815 
	C502.861420,599.046875 505.524414,596.797302 507.942780,594.309814 
	C511.927704,590.210999 515.754456,585.958374 519.948242,581.613159 
	C522.872253,579.144592 525.482178,576.817505 528.122070,574.525085 
	C543.597961,561.085999 554.243774,544.547546 560.429504,525.001404 
	C565.349182,509.455536 564.705261,493.482574 565.098450,477.502838 
	C565.734680,451.644287 560.313721,427.609039 545.758057,405.507080 
	C545.815735,349.234924 545.985657,293.420654 545.763550,237.607941 
	C545.693604,220.042831 541.776672,203.201050 532.443176,188.029373 
	C527.402649,179.835907 522.179199,171.696747 513.464661,166.207855 
	C507.882751,160.569458 502.496338,155.211517 496.906921,149.594131 
	C495.146332,147.600235 493.526947,145.916962 492.040588,144.123474 
	C476.598419,125.490082 456.935425,113.669350 432.973541,110.971626 
	C416.994507,109.172653 400.706543,110.123871 384.557129,109.829643 
	C369.062683,109.547340 354.365326,113.022469 340.875519,120.461403 
	C309.887054,137.549896 291.883270,163.756195 291.253662,199.342590 
	C290.301544,253.157410 291.031464,307.001984 290.579132,360.899902 
	C195.381821,360.976685 100.652054,360.988007 5.922276,360.990814 
	C4.926529,360.990845 3.930779,360.878693 2.989227,360.416901 
	C3.668992,355.450470 4.364359,350.894348 4.908389,346.320190 
	C7.690585,322.927612 13.212376,300.130554 20.426264,277.770386 
	C28.532686,252.643738 39.171341,228.592667 51.977989,205.458206 
	C64.024475,183.696945 78.007835,163.241852 94.150444,144.453796 
	C106.097389,130.548981 119.185516,117.509300 132.693298,105.093918 
	C145.760605,93.083397 159.441284,81.553795 173.913773,71.312653 
	C187.510849,61.691002 202.132248,53.328773 216.948761,45.660160 
	C242.770782,32.295410 269.719971,21.674215 297.965485,14.250521 
	C320.327026,8.373289 342.900208,4.431838 365.919647,2.741977 
	C366.983337,2.663892 367.974854,1.603109 369.000000,1.000004 
	C389.354218,1.000000 409.708466,1.000000 430.635925,1.307316 
	C432.472748,1.409754 433.736389,1.204876 435.000000,0.999999 
z"/>
<path fill="#EE545F" opacity="1.000000" stroke="none" 
	d="
M545.718872,405.965546 
	C560.313721,427.609039 565.734680,451.644287 565.098450,477.502838 
	C564.705261,493.482574 565.349182,509.455536 560.429504,525.001404 
	C554.243774,544.547546 543.597961,561.085999 528.122070,574.525085 
	C525.482178,576.817505 522.872253,579.144592 519.604370,581.640198 
	C511.907166,585.531250 505.065918,589.733459 497.762390,592.853516 
	C473.710052,603.128662 448.295868,602.104858 423.434906,598.635681 
	C375.132355,591.895508 337.477631,547.442688 336.956268,498.693329 
	C336.769196,481.201447 336.906708,463.706146 336.887939,446.212402 
	C336.880249,439.022003 336.870514,439.006836 329.763184,439.006500 
	C252.290695,439.002716 174.818207,438.995880 97.345711,439.007843 
	C65.857338,439.012695 34.368965,439.061432 2.568666,439.052368 
	C1.837825,439.009674 1.418913,439.004852 1.000000,439.000000 
	C1.000000,413.312439 1.000000,387.624878 1.325707,361.466309 
	C2.079286,360.936493 2.507158,360.877686 2.935030,360.818878 
	C3.930779,360.878693 4.926529,360.990845 5.922276,360.990814 
	C100.652054,360.988007 195.381821,360.976685 291.041199,360.961731 
	C314.396057,360.920593 336.821350,360.883636 359.685669,360.907837 
	C365.363861,360.924255 370.602997,360.879547 376.319916,360.896423 
	C381.865509,360.916931 386.933350,360.875885 392.466583,360.900177 
	C410.048676,360.921478 427.165375,360.877441 444.730225,360.887756 
	C468.203522,359.950256 490.472443,362.706482 511.176422,374.472656 
	C517.258972,378.862305 523.140015,382.997101 529.189941,387.410095 
	C534.812195,393.780701 540.265564,399.873108 545.718872,405.965546 
M450.748840,522.647949 
	C453.907440,522.709045 457.073639,522.941833 460.223297,522.801758 
	C474.723541,522.156860 487.043152,510.313782 487.582611,496.028168 
	C487.971680,485.724518 487.962860,475.382660 487.576721,465.078613 
	C487.046692,450.935638 476.217651,438.988220 462.586792,438.462921 
	C445.136688,437.790497 427.643585,438.144379 410.171600,438.316620 
	C408.924133,438.328918 406.647736,440.454254 406.624329,441.632294 
	C406.396759,453.090698 406.547943,464.556641 406.544769,476.954224 
	C406.540192,481.784576 406.520508,486.614929 406.533844,491.445251 
	C406.577942,507.418488 417.618896,520.135681 433.528503,522.018250 
	C438.950897,522.659912 444.493073,522.289734 450.748840,522.647949 
z"/>
<path fill="#000000" opacity="1.000000" stroke="none" 
	d="
M2.989228,360.416901 
	C2.507158,360.877686 2.079286,360.936493 1.325707,360.997650 
	C1.000000,241.072128 1.000000,121.144257 1.000000,1.000000 
	C123.354141,1.000000 245.708420,1.000000 368.531342,1.000004 
	C367.974854,1.603109 366.983337,2.663892 365.919647,2.741977 
	C342.900208,4.431838 320.327026,8.373289 297.965485,14.250521 
	C269.719971,21.674215 242.770782,32.295410 216.948761,45.660160 
	C202.132248,53.328773 187.510849,61.691002 173.913773,71.312653 
	C159.441284,81.553795 145.760605,93.083397 132.693298,105.093918 
	C119.185516,117.509300 106.097389,130.548981 94.150444,144.453796 
	C78.007835,163.241852 64.024475,183.696945 51.977989,205.458206 
	C39.171341,228.592667 28.532686,252.643738 20.426264,277.770386 
	C13.212376,300.130554 7.690585,322.927612 4.908389,346.320190 
	C4.364359,350.894348 3.668992,355.450470 2.989228,360.416901 
z"/>
<path fill="#000000" opacity="1.000000" stroke="none" 
	d="
M801.000000,358.531342 
	C800.340820,357.785461 799.232178,356.621796 799.087952,355.348938 
	C795.246704,321.430298 786.647888,288.720428 774.498840,256.871307 
	C761.925720,223.910385 744.899170,193.382889 724.146057,164.945724 
	C717.838867,156.303299 710.716675,148.228226 703.638550,140.182938 
	C695.431824,130.854919 687.551819,121.067383 678.296143,112.872963 
	C662.744812,99.104729 646.439148,86.154381 630.041199,73.385994 
	C613.126221,60.215042 594.448975,49.656807 574.931824,41.005993 
	C556.056580,32.639633 536.615723,25.455311 517.129395,18.585413 
	C493.765503,10.348468 469.311279,6.655389 444.887207,3.063361 
	C442.346375,2.689682 439.828308,2.161277 437.149841,1.352332 
	C558.259766,1.000000 679.519592,1.000000 801.000000,1.000000 
	C801.000000,120.020805 801.000000,239.041748 801.000000,358.531342 
z"/>
<path fill="#000000" opacity="1.000000" stroke="none" 
	d="
M1.000000,439.468658 
	C1.418913,439.004852 1.837825,439.009674 2.611805,439.506775 
	C3.934629,447.362976 4.902385,454.726929 5.902336,462.524506 
	C6.919311,468.370544 7.904091,473.782959 8.888870,479.195404 
	C11.602530,490.931122 13.500710,502.932434 17.216307,514.341858 
	C23.154488,532.576111 29.781548,550.631836 37.118530,568.348450 
	C41.930431,579.967651 48.059841,591.117188 54.415577,602.000244 
	C60.990685,613.258850 68.218102,624.179321 75.784103,634.803345 
	C82.284813,643.931641 89.497070,652.574585 96.708420,661.168884 
	C102.784515,668.410156 108.918121,675.683594 115.728569,682.209961 
	C126.756668,692.778015 137.779037,703.502930 149.865524,712.778137 
	C165.580170,724.837830 181.870941,736.301208 198.768036,746.622803 
	C216.154083,757.243103 234.398392,766.522461 253.795441,773.216003 
	C267.652313,777.997803 281.269745,783.590820 295.343964,787.590576 
	C308.041229,791.199097 321.182495,793.302490 334.189178,795.743347 
	C341.519470,797.118896 348.979401,797.795959 356.364014,798.900635 
	C357.234467,799.030884 357.997559,799.878235 358.905212,800.696594 
	C239.739182,801.000000 120.478378,801.000000 1.000000,801.000000 
	C1.000000,680.645874 1.000000,560.291565 1.000000,439.468658 
z"/>
<path fill="#000000" opacity="1.000000" stroke="none" 
	d="
M443.468658,801.000000 
	C446.754730,799.941223 450.459869,798.637085 454.272827,797.866211 
	C470.807098,794.523193 487.521454,791.946411 503.895691,787.962280 
	C536.228088,780.095276 566.702515,767.235840 595.776062,751.164978 
	C618.421204,738.647461 640.005615,724.385437 659.285278,707.090088 
	C673.609192,694.240479 687.579102,680.872375 700.580017,666.701599 
	C718.843872,646.794250 734.814026,624.992737 747.673096,601.149231 
	C756.087585,585.546875 764.862549,569.977844 771.415833,553.570984 
	C781.000183,529.575256 789.463135,505.048279 793.778809,479.389709 
	C795.665710,468.171753 797.155090,456.887207 798.912598,445.646606 
	C799.049500,444.771179 799.879883,444.004150 800.693970,443.093384 
	C801.000000,562.260376 801.000000,681.520813 801.000000,801.000000 
	C681.979187,801.000000 562.958252,801.000000 443.468658,801.000000 
z"/>
<path fill="#000000" opacity="1.000000" stroke="none" 
	d="
M434.600006,0.999999 
	C433.736389,1.204876 432.472748,1.409754 431.104553,1.307316 
	C432.066681,1.000000 433.133331,1.000000 434.600006,0.999999 
z"/>
<path fill="#000000" opacity="1.000000" stroke="none" 
	d="
M364.250000,801.000000 
	C364.328125,800.874146 364.656250,800.748230 364.992188,800.811157 
	C365.000000,801.000000 364.500000,801.000000 364.250000,801.000000 
z"/>
<path fill="#000000" opacity="1.000000" stroke="none" 
	d="
M369.250000,801.000000 
	C369.322815,800.876770 369.645599,800.753601 369.984192,800.815186 
	C370.000000,801.000000 369.500000,801.000000 369.250000,801.000000 
z"/>
<path fill="#000000" opacity="1.000000" stroke="none" 
	d="
M433.250000,801.000000 
	C433.328125,800.874084 433.656219,800.748230 433.992188,800.811157 
	C434.000000,801.000000 433.500000,801.000000 433.250000,801.000000 
z"/>
<path fill="#000000" opacity="1.000000" stroke="none" 
	d="
M436.250000,801.000000 
	C436.328125,800.874146 436.656219,800.748230 436.992188,800.811157 
	C437.000000,801.000000 436.500000,801.000000 436.250000,801.000000 
z"/>
<path fill="#54EE97" opacity="1.000000" stroke="none" 
	d="
M359.246613,360.846680 
	C336.821350,360.883636 314.396057,360.920593 291.508728,360.895752 
	C291.031464,307.001984 290.301544,253.157410 291.253662,199.342590 
	C291.883270,163.756195 309.887054,137.549896 340.875519,120.461403 
	C354.365326,113.022469 369.062683,109.547340 384.557129,109.829643 
	C400.706543,110.123871 416.994507,109.172653 432.973541,110.971626 
	C456.935425,113.669350 476.598419,125.490082 492.040588,144.123474 
	C493.526947,145.916962 495.146332,147.600235 496.915344,149.952454 
	C497.842468,151.878555 498.483002,153.235092 499.285553,154.487839 
	C508.141846,168.312042 512.746887,183.634567 512.851624,199.838196 
	C513.216248,256.254211 513.034607,312.673859 512.945007,369.091980 
	C512.942261,370.801636 511.660400,372.509247 510.974854,374.217834 
	C490.472443,362.706482 468.203522,359.950256 444.730072,360.432343 
	C444.219452,355.263397 444.157135,350.604279 444.168579,345.485840 
	C444.147644,339.698059 444.052887,334.369568 444.005676,328.573181 
	C444.077637,324.945099 443.898102,321.766815 444.175537,318.628937 
	C444.565155,314.222107 442.758606,312.894043 438.429230,312.922638 
	C413.810150,313.085388 389.188995,313.077026 364.569733,312.928558 
	C360.401093,312.903442 359.071716,314.365967 359.125153,318.428497 
	C359.311096,332.565979 359.227631,346.707001 359.246613,360.846680 
M393.033112,243.788742 
	C409.922913,243.788742 426.812714,243.788742 443.983398,243.788742 
	C443.983398,232.154724 443.983398,221.081665 444.165619,209.096176 
	C443.764282,204.409073 443.362915,199.721970 442.862976,194.323135 
	C438.361633,183.144440 431.046051,178.018799 419.188629,177.939987 
	C407.696655,177.863586 396.203369,177.861771 384.711365,177.938004 
	C370.816589,178.030182 360.425812,186.722672 359.521881,200.465195 
	C358.660126,213.566925 359.273224,226.765305 359.225067,239.921158 
	C359.213959,242.960983 360.898804,243.978470 363.692963,243.911072 
	C367.853729,243.810699 372.016693,243.801819 377.087677,243.809631 
	C382.098785,243.755219 387.109924,243.700821 393.033112,243.788742 
z"/>
<path fill="#A4414E" opacity="1.000000" stroke="none" 
	d="
M5.870141,462.090912 
	C4.902385,454.726929 3.934629,447.362976 2.923733,439.544617 
	C34.368965,439.061432 65.857338,439.012695 97.345711,439.007843 
	C174.818207,438.995880 252.290695,439.002716 329.763184,439.006500 
	C336.870514,439.006836 336.880249,439.022003 336.887939,446.212402 
	C336.906708,463.706146 336.769196,481.201447 336.956268,498.693329 
	C337.477631,547.442688 375.132355,591.895508 423.434906,598.635681 
	C448.295868,602.104858 473.710052,603.128662 497.762390,592.853516 
	C505.065918,589.733459 511.907166,585.531250 519.304016,581.797607 
	C515.754456,585.958374 511.927704,590.210999 507.942780,594.309814 
	C505.524414,596.797302 502.861420,599.046875 499.686768,601.628418 
	C492.055267,605.287048 485.217407,609.144043 478.003632,612.076111 
	C454.690491,621.551697 430.182068,621.029175 406.113495,617.650879 
	C355.697784,610.574402 318.120300,565.958252 318.002655,514.988525 
	C317.964996,498.668518 317.996765,482.348419 317.992920,466.028351 
	C317.990997,457.846558 317.987091,457.840485 309.808075,457.840363 
	C211.221603,457.838928 112.635147,457.839417 14.048680,457.839966 
	C12.882982,457.839966 11.709636,457.934998 10.553059,457.834229 
	C7.416138,457.560822 5.864626,458.948517 5.870141,462.090912 
z"/>
<path fill="#5C2D3D" opacity="1.000000" stroke="none" 
	d="
M5.902335,462.524506 
	C5.864626,458.948517 7.416138,457.560822 10.553059,457.834229 
	C11.709636,457.934998 12.882982,457.839966 14.048680,457.839966 
	C112.635147,457.839417 211.221603,457.838928 309.808075,457.840363 
	C317.987091,457.840485 317.990997,457.846558 317.992920,466.028351 
	C317.996765,482.348419 317.964996,498.668518 318.002655,514.988525 
	C318.120300,565.958252 355.697784,610.574402 406.113495,617.650879 
	C430.182068,621.029175 454.690491,621.551697 478.003632,612.076111 
	C485.217407,609.144043 492.055267,605.287048 499.410583,601.810913 
	C495.357208,606.366516 491.450439,611.600769 486.473022,615.450928 
	C466.866394,630.617310 444.583588,638.585754 419.649170,637.917419 
	C406.874908,637.575195 393.835052,637.807739 381.413757,635.305542 
	C336.745361,626.307495 303.202057,587.755493 300.075806,541.976196 
	C298.728058,522.240845 299.331421,502.371582 299.072327,482.562836 
	C298.986816,476.023956 298.971832,475.943970 292.275391,475.943451 
	C199.973282,475.936462 107.671150,475.922577 15.369200,476.041962 
	C13.287786,476.044647 11.208370,477.584900 9.008450,478.801666 
	C7.904091,473.782959 6.919311,468.370544 5.902335,462.524506 
z"/>
<path fill="#2E5B4E" opacity="1.000000" stroke="none" 
	d="
M545.758057,405.507080 
	C540.265564,399.873108 534.812195,393.780701 529.215942,386.931580 
	C529.081665,330.264740 529.128235,274.354584 529.075806,218.444519 
	C529.060059,201.600037 524.617920,185.916763 516.017151,171.412537 
	C515.092651,169.853455 514.439270,168.133575 513.660156,166.488297 
	C522.179199,171.696747 527.402649,179.835907 532.443176,188.029373 
	C541.776672,203.201050 545.693604,220.042831 545.763550,237.607941 
	C545.985657,293.420654 545.815735,349.234924 545.758057,405.507080 
z"/>
<path fill="#41A573" opacity="1.000000" stroke="none" 
	d="
M513.464661,166.207855 
	C514.439270,168.133575 515.092651,169.853455 516.017151,171.412537 
	C524.617920,185.916763 529.060059,201.600037 529.075806,218.444519 
	C529.128235,274.354584 529.081665,330.264740 529.046997,386.653381 
	C523.140015,382.997101 517.258972,378.862305 511.176422,374.472656 
	C511.660400,372.509247 512.942261,370.801636 512.945007,369.091980 
	C513.034607,312.673859 513.216248,256.254211 512.851624,199.838196 
	C512.746887,183.634567 508.141846,168.312042 499.285553,154.487839 
	C498.483002,153.235092 497.842468,151.878555 497.118317,150.211914 
	C502.496338,155.211517 507.882751,160.569458 513.464661,166.207855 
z"/>
<path fill="#863847" opacity="1.000000" stroke="none" 
	d="
M406.591187,476.020416 
	C406.547943,464.556641 406.396759,453.090698 406.624329,441.632294 
	C406.647736,440.454254 408.924133,438.328918 410.171600,438.316620 
	C427.643585,438.144379 445.136688,437.790497 462.586792,438.462921 
	C476.217651,438.988220 487.046692,450.935638 487.576721,465.078613 
	C487.962860,475.382660 487.971680,485.724518 487.582611,496.028168 
	C487.043152,510.313782 474.723541,522.156860 460.223297,522.801758 
	C457.073639,522.941833 453.907440,522.709045 450.473907,522.030396 
	C450.214844,514.597412 450.566803,507.761810 450.160156,500.971649 
	C449.668976,492.769470 445.865845,486.081879 439.247528,481.091644 
	C429.268707,473.567627 417.827545,475.451569 406.591187,476.020416 
z"/>
<path fill="#41A673" opacity="1.000000" stroke="none" 
	d="
M359.685669,360.907837 
	C359.227631,346.707001 359.311096,332.565979 359.125153,318.428497 
	C359.071716,314.365967 360.401093,312.903442 364.569733,312.928558 
	C389.188995,313.077026 413.810150,313.085388 438.429230,312.922638 
	C442.758606,312.894043 444.565155,314.222107 444.175537,318.628937 
	C443.898102,321.766815 444.077637,324.945099 443.540344,328.588928 
	C422.460754,329.079376 401.893616,329.163330 381.327911,329.027252 
	C377.266479,329.000397 375.720612,330.308258 375.823303,334.465332 
	C376.040222,343.249969 375.859650,352.044434 375.842163,360.834839 
	C370.602997,360.879547 365.363861,360.924255 359.685669,360.907837 
z"/>
<path fill="#1F1C2E" opacity="1.000000" stroke="none" 
	d="
M406.567993,476.487305 
	C417.827545,475.451569 429.268707,473.567627 439.247528,481.091644 
	C445.865845,486.081879 449.668976,492.769470 450.160156,500.971649 
	C450.566803,507.761810 450.214844,514.597412 450.089722,521.897339 
	C444.493073,522.289734 438.950897,522.659912 433.528503,522.018250 
	C417.618896,520.135681 406.577942,507.418488 406.533844,491.445251 
	C406.520508,486.614929 406.540192,481.784576 406.567993,476.487305 
z"/>
<path fill="#2E5B4E" opacity="1.000000" stroke="none" 
	d="
M376.319916,360.896423 
	C375.859650,352.044434 376.040222,343.249969 375.823303,334.465332 
	C375.720612,330.308258 377.266479,329.000397 381.327911,329.027252 
	C401.893616,329.163330 422.460754,329.079376 443.492767,329.056763 
	C444.052887,334.369568 444.147644,339.698059 443.694336,345.455383 
	C431.029633,345.872925 418.913055,345.856354 406.796448,345.851746 
	C391.969025,345.846130 391.969025,345.850433 392.001190,360.834839 
	C386.933350,360.875885 381.865509,360.916931 376.319916,360.896423 
z"/>
<path fill="#1D1C2E" opacity="1.000000" stroke="none" 
	d="
M392.466583,360.900208 
	C391.969025,345.850433 391.969025,345.846130 406.796448,345.851746 
	C418.913055,345.856354 431.029633,345.872925 443.620514,345.914673 
	C444.157135,350.604279 444.219452,355.263397 444.281921,360.377991 
	C427.165375,360.877441 410.048676,360.921478 392.466583,360.900208 
z"/>
<path fill="#41A673" opacity="1.000000" stroke="none" 
	d="
M376.178741,243.754028 
	C372.016693,243.801819 367.853729,243.810699 363.692963,243.911072 
	C360.898804,243.978470 359.213959,242.960983 359.225067,239.921158 
	C359.273224,226.765305 358.660126,213.566925 359.521881,200.465195 
	C360.425812,186.722672 370.816589,178.030182 384.711365,177.938004 
	C396.203369,177.861771 407.696655,177.863586 419.188629,177.939987 
	C431.046051,178.018799 438.361633,183.144440 442.510803,194.571106 
	C426.565582,194.697662 410.925049,193.792114 395.396240,194.731903 
	C385.134918,195.352905 376.460602,205.573654 376.069580,215.343521 
	C375.691254,224.797104 376.110046,234.282562 376.178741,243.754028 
z"/>
<path fill="#2E5B4E" opacity="1.000000" stroke="none" 
	d="
M376.633209,243.781830 
	C376.110046,234.282562 375.691254,224.797104 376.069580,215.343521 
	C376.460602,205.573654 385.134918,195.352905 395.396240,194.731903 
	C410.925049,193.792114 426.565582,194.697662 442.560089,194.926971 
	C443.362915,199.721970 443.764282,204.409073 443.607208,209.570190 
	C434.769318,210.056488 426.487244,209.942307 418.210907,210.109924 
	C404.867004,210.380157 395.041229,217.532501 392.613556,229.312576 
	C391.662323,233.928329 392.239777,238.859100 392.121033,243.646423 
	C387.109924,243.700821 382.098785,243.755219 376.633209,243.781830 
z"/>
<path fill="#1D1C2E" opacity="1.000000" stroke="none" 
	d="
M392.577087,243.717575 
	C392.239777,238.859100 391.662323,233.928329 392.613556,229.312576 
	C395.041229,217.532501 404.867004,210.380157 418.210907,210.109924 
	C426.487244,209.942307 434.769318,210.056488 443.516113,210.026398 
	C443.983398,221.081665 443.983398,232.154724 443.983398,243.788742 
	C426.812714,243.788742 409.922913,243.788742 392.577087,243.717575 
z"/>
</svg>