<svg xmlns="http://www.w3.org/2000/svg" xmlns:xlink="http://www.w3.org/1999/xlink" width="500" zoomAndPan="magnify" viewBox="0 0 375 374.999991" height="500" preserveAspectRatio="xMidYMid meet" version="1.0"><defs><g/><clipPath id="4344aba9df"><path d="M 112.5 91.082031 L 262.5 91.082031 L 262.5 224.582031 L 112.5 224.582031 Z M 112.5 91.082031 " clip-rule="nonzero"/></clipPath></defs><rect x="-37.5" width="450" fill="#ffffff" y="-37.499999" height="449.999989" fill-opacity="1"/><rect x="-37.5" width="450" fill="#ffffff" y="-37.499999" height="449.999989" fill-opacity="1"/><rect x="-37.5" width="450" fill="#120037" y="-37.499999" height="449.999989" fill-opacity="1"/><g fill="#ffffff" fill-opacity="1"><g transform="translate(115.332527, 249.070546)"><g><path d="M 11.5 -5.71875 L 3.9375 -5.71875 L 2.03125 0 L 0.328125 0 L 6.125 -16.84375 C 6.226562 -17.164062 6.445312 -17.328125 6.78125 -17.328125 L 8.65625 -17.328125 C 9 -17.328125 9.21875 -17.164062 9.3125 -16.84375 L 15.109375 0 L 13.40625 0 Z M 11.015625 -7.15625 L 8.53125 -14.609375 C 8.519531 -14.691406 8.453125 -14.90625 8.328125 -15.25 C 8.210938 -15.59375 8.128906 -15.847656 8.078125 -16.015625 L 7.375 -16.015625 L 4.421875 -7.15625 Z M 11.015625 -7.15625 "/></g></g></g><g fill="#ffffff" fill-opacity="1"><g transform="translate(130.769977, 249.070546)"><g><path d="M 15.21875 -17.328125 L 15.21875 -0.703125 C 15.21875 -0.234375 14.988281 0 14.53125 0 L 12.78125 0 C 12.414062 0 12.148438 -0.179688 11.984375 -0.546875 L 5.375 -13.703125 C 4.75 -14.992188 4.421875 -15.691406 4.390625 -15.796875 L 3.921875 -15.796875 C 3.953125 -15.335938 3.96875 -14.640625 3.96875 -13.703125 L 3.96875 0 L 2.328125 0 L 2.328125 -16.625 C 2.328125 -17.09375 2.554688 -17.328125 3.015625 -17.328125 L 4.71875 -17.328125 C 5.082031 -17.328125 5.351562 -17.140625 5.53125 -16.765625 L 11.984375 -3.921875 C 12.492188 -2.878906 12.875 -2.097656 13.125 -1.578125 L 13.65625 -1.578125 C 13.601562 -2.398438 13.578125 -3.226562 13.578125 -4.0625 L 13.578125 -17.328125 Z M 15.21875 -17.328125 "/></g></g></g><g fill="#ffffff" fill-opacity="1"><g transform="translate(148.315954, 249.070546)"><g><path d="M 13.8125 -15.875 L 8.03125 -15.875 L 8.03125 0 L 6.375 0 L 6.375 -15.875 L 0.625 -15.875 L 0.625 -17.328125 L 13.8125 -17.328125 Z M 13.8125 -15.875 "/></g></g></g><g fill="#ffffff" fill-opacity="1"><g transform="translate(162.749344, 249.070546)"><g/></g></g><g fill="#ffffff" fill-opacity="1"><g transform="translate(168.422295, 249.070546)"><g><path d="M 2.328125 0 L 2.328125 -17.328125 C 3.722656 -17.460938 5.660156 -17.53125 8.140625 -17.53125 C 10.160156 -17.53125 11.5625 -17.15625 12.34375 -16.40625 C 13.125 -15.664062 13.515625 -14.273438 13.515625 -12.234375 C 13.515625 -10.191406 13.128906 -8.796875 12.359375 -8.046875 C 11.597656 -7.304688 10.25 -6.9375 8.3125 -6.9375 C 6.851562 -6.9375 5.40625 -7 3.96875 -7.125 L 3.96875 0 Z M 3.96875 -8.359375 L 8.109375 -8.359375 C 9.515625 -8.378906 10.484375 -8.648438 11.015625 -9.171875 C 11.554688 -9.703125 11.828125 -10.722656 11.828125 -12.234375 C 11.828125 -13.753906 11.554688 -14.78125 11.015625 -15.3125 C 10.484375 -15.851562 9.515625 -16.125 8.109375 -16.125 C 6.679688 -16.125 5.300781 -16.101562 3.96875 -16.0625 Z M 3.96875 -8.359375 "/></g></g></g><g fill="#ffffff" fill-opacity="1"><g transform="translate(183.156894, 249.070546)"><g><path d="M 14.34375 -17.328125 L 14.34375 0 L 12.703125 0 L 12.703125 -8.5625 L 3.96875 -8.5625 L 3.96875 0 L 2.328125 0 L 2.328125 -17.328125 L 3.96875 -17.328125 L 3.96875 -9.96875 L 12.703125 -9.96875 L 12.703125 -17.328125 Z M 14.34375 -17.328125 "/></g></g></g><g fill="#ffffff" fill-opacity="1"><g transform="translate(199.824319, 249.070546)"><g><path d="M 3.96875 0 L 2.328125 0 L 2.328125 -17.328125 L 3.96875 -17.328125 Z M 3.96875 0 "/></g></g></g><g fill="#ffffff" fill-opacity="1"><g transform="translate(206.124807, 249.070546)"><g><path d="M 3.921875 -17.328125 L 3.921875 -3.21875 C 3.921875 -1.988281 4.519531 -1.375 5.71875 -1.375 L 12.171875 -1.375 L 12.234375 -0.125 C 10.453125 -0.0195312 8.191406 0.03125 5.453125 0.03125 C 4.390625 0.03125 3.59375 -0.242188 3.0625 -0.796875 C 2.53125 -1.347656 2.265625 -2.078125 2.265625 -2.984375 L 2.265625 -17.328125 Z M 3.921875 -17.328125 "/></g></g></g><g fill="#ffffff" fill-opacity="1"><g transform="translate(218.951699, 249.070546)"><g><path d="M 3.921875 -17.328125 L 3.921875 -3.21875 C 3.921875 -1.988281 4.519531 -1.375 5.71875 -1.375 L 12.171875 -1.375 L 12.234375 -0.125 C 10.453125 -0.0195312 8.191406 0.03125 5.453125 0.03125 C 4.390625 0.03125 3.59375 -0.242188 3.0625 -0.796875 C 2.53125 -1.347656 2.265625 -2.078125 2.265625 -2.984375 L 2.265625 -17.328125 Z M 3.921875 -17.328125 "/></g></g></g><g fill="#ffffff" fill-opacity="1"><g transform="translate(231.778591, 249.070546)"><g><path d="M 3.96875 0 L 2.328125 0 L 2.328125 -17.328125 L 3.96875 -17.328125 Z M 3.96875 0 "/></g></g></g><g fill="#ffffff" fill-opacity="1"><g transform="translate(238.079078, 249.070546)"><g><path d="M 2.328125 0 L 2.328125 -17.328125 C 3.722656 -17.460938 5.660156 -17.53125 8.140625 -17.53125 C 10.160156 -17.53125 11.5625 -17.15625 12.34375 -16.40625 C 13.125 -15.664062 13.515625 -14.273438 13.515625 -12.234375 C 13.515625 -10.191406 13.128906 -8.796875 12.359375 -8.046875 C 11.597656 -7.304688 10.25 -6.9375 8.3125 -6.9375 C 6.851562 -6.9375 5.40625 -7 3.96875 -7.125 L 3.96875 0 Z M 3.96875 -8.359375 L 8.109375 -8.359375 C 9.515625 -8.378906 10.484375 -8.648438 11.015625 -9.171875 C 11.554688 -9.703125 11.828125 -10.722656 11.828125 -12.234375 C 11.828125 -13.753906 11.554688 -14.78125 11.015625 -15.3125 C 10.484375 -15.851562 9.515625 -16.125 8.109375 -16.125 C 6.679688 -16.125 5.300781 -16.101562 3.96875 -16.0625 Z M 3.96875 -8.359375 "/></g></g></g><g fill="#ffffff" fill-opacity="1"><g transform="translate(252.813677, 249.070546)"><g><path d="M 8.5625 -7.640625 L 4.875 -8.40625 C 3.644531 -8.65625 2.769531 -9.148438 2.25 -9.890625 C 1.738281 -10.640625 1.484375 -11.710938 1.484375 -13.109375 C 1.484375 -14.109375 1.582031 -14.914062 1.78125 -15.53125 C 1.976562 -16.144531 2.328125 -16.597656 2.828125 -16.890625 C 3.335938 -17.191406 3.894531 -17.390625 4.5 -17.484375 C 5.101562 -17.578125 5.921875 -17.617188 6.953125 -17.609375 C 8.816406 -17.609375 10.484375 -17.472656 11.953125 -17.203125 L 11.828125 -16 C 9.847656 -16.09375 8.25 -16.140625 7.03125 -16.140625 C 6.207031 -16.140625 5.601562 -16.117188 5.21875 -16.078125 C 4.832031 -16.035156 4.453125 -15.914062 4.078125 -15.71875 C 3.703125 -15.519531 3.453125 -15.207031 3.328125 -14.78125 C 3.203125 -14.363281 3.140625 -13.789062 3.140625 -13.0625 C 3.140625 -12.019531 3.316406 -11.269531 3.671875 -10.8125 C 4.035156 -10.351562 4.65625 -10.039062 5.53125 -9.875 L 9.140625 -9.109375 C 10.429688 -8.859375 11.335938 -8.359375 11.859375 -7.609375 C 12.390625 -6.867188 12.65625 -5.789062 12.65625 -4.375 C 12.65625 -3.363281 12.546875 -2.546875 12.328125 -1.921875 C 12.109375 -1.304688 11.75 -0.835938 11.25 -0.515625 C 10.75 -0.203125 10.179688 0.00390625 9.546875 0.109375 C 8.910156 0.222656 8.070312 0.28125 7.03125 0.28125 C 5.125 0.28125 3.363281 0.15625 1.75 -0.09375 L 1.859375 -1.328125 C 3.929688 -1.234375 5.671875 -1.1875 7.078125 -1.1875 C 8.597656 -1.195312 9.625 -1.398438 10.15625 -1.796875 C 10.695312 -2.203125 10.96875 -3.066406 10.96875 -4.390625 C 10.96875 -5.484375 10.785156 -6.253906 10.421875 -6.703125 C 10.066406 -7.148438 9.445312 -7.460938 8.5625 -7.640625 Z M 8.5625 -7.640625 "/></g></g></g><g clip-path="url(#4344aba9df)"><path fill="#a274ff" d="M 145.984375 207.078125 L 140.054688 218.9375 C 138.332031 222.382812 134.8125 224.558594 130.960938 224.558594 L 119.964844 224.558594 L 128.703125 207.078125 L 112.503906 207.078125 C 112.503906 202.976562 114.132812 199.046875 117.03125 196.148438 C 119.933594 193.25 123.863281 191.621094 127.964844 191.621094 L 136.433594 191.621094 L 184.660156 95.164062 C 185.90625 92.671875 188.449219 91.101562 191.234375 91.101562 C 194.019531 91.101562 196.5625 92.671875 197.808594 95.164062 L 223.351562 146.253906 L 232.09375 146.253906 C 248.890625 146.253906 262.503906 159.871094 262.503906 176.664062 C 262.503906 193.460938 248.890625 207.078125 232.09375 207.078125 L 182.078125 207.078125 C 178.21875 207.078125 174.6875 209.257812 172.960938 212.710938 C 171.964844 214.703125 170.84375 216.945312 169.847656 218.9375 C 168.125 222.382812 164.605469 224.558594 160.753906 224.558594 L 149.757812 224.558594 L 158.496094 207.078125 Z M 252.484375 204.519531 L 262.503906 224.558594 L 251.511719 224.558594 C 247.65625 224.558594 244.136719 222.382812 242.414062 218.9375 L 238.003906 210.117188 C 243.378906 209.527344 248.328125 207.535156 252.484375 204.519531 Z M 228.753906 191.621094 L 183.507812 191.621094 C 183.507812 191.621094 192.242188 174.148438 196.363281 165.910156 C 197.648438 163.335938 200.28125 161.710938 203.160156 161.710938 L 208.980469 161.710938 L 201.253906 146.253906 L 200.175781 146.253906 C 193.269531 146.253906 186.957031 150.15625 183.871094 156.332031 C 177.1875 169.699219 166.226562 191.621094 166.226562 191.621094 L 153.714844 191.621094 L 188.433594 122.179688 C 188.964844 121.121094 190.046875 120.449219 191.234375 120.449219 C 192.421875 120.449219 193.503906 121.121094 194.035156 122.179688 Z M 231.082031 161.710938 L 232.09375 161.710938 C 240.351562 161.710938 247.046875 168.40625 247.046875 176.664062 C 247.046875 180.390625 245.6875 183.796875 243.433594 186.414062 Z M 231.082031 161.710938 " fill-opacity="1" fill-rule="evenodd"/></g></svg>