<?xml version="1.0" encoding="UTF-8" standalone="no"?>
<svg
   height="640"
   width="1440"
   version="1.1"
   id="svg157"
   sodipodi:docname="bg-main-dark.svg"
   inkscape:version="1.1.2 (0a00cf5339, 2022-02-04)"
   xmlns:inkscape="http://www.inkscape.org/namespaces/inkscape"
   xmlns:sodipodi="http://sodipodi.sourceforge.net/DTD/sodipodi-0.dtd"
   xmlns:xlink="http://www.w3.org/1999/xlink"
   xmlns="http://www.w3.org/2000/svg"
   xmlns:svg="http://www.w3.org/2000/svg">
  <defs
     id="defs161" />
  <sodipodi:namedview
     id="namedview159"
     pagecolor="#ffffff"
     bordercolor="#666666"
     borderopacity="1.0"
     inkscape:pageshadow="2"
     inkscape:pageopacity="0.0"
     inkscape:pagecheckerboard="0"
     showgrid="false"
     inkscape:zoom="1.2069444"
     inkscape:cx="720"
     inkscape:cy="320.23015"
     inkscape:window-width="1920"
     inkscape:window-height="995"
     inkscape:window-x="2560"
     inkscape:window-y="840"
     inkscape:window-maximized="1"
     inkscape:current-layer="svg157" />
  <linearGradient
     id="a">
    <stop
       offset=".58"
       stop-opacity="0"
       id="stop139" />
    <stop
       offset="1"
       id="stop141" />
  </linearGradient>
  <linearGradient
     id="b"
     gradientUnits="userSpaceOnUse"
     x1="793.5"
     x2="759.5"
     xlink:href="#a"
     y1="261.5"
     y2="149.5" />
  <linearGradient
     id="c"
     gradientUnits="userSpaceOnUse"
     x1="644.19"
     x2="645.54"
     xlink:href="#a"
     y1="398.02"
     y2="267.7" />
  <linearGradient
     id="d"
     gradientUnits="userSpaceOnUse"
     x1="547"
     x2="522.36"
     xlink:href="#a"
     y1="457.27"
     y2="342.85" />
  <g
     clip-rule="evenodd"
     fill-rule="evenodd"
     opacity=".15"
     id="g153">
    <path
       d="m439.57 249.55a2149.47 2149.47 0 0 1 1193.87-182.45l-12.48 93.17a2055.46 2055.46 0 0 0 -1141.66 174.47l-454.24 211.86-39.73-85.2z"
       fill="url(#b)"
       id="path147" />
    <path
       d="m272.3 266.93a2393.36 2393.36 0 0 1 1328.96 205.6l-44.42 94.78a2288.7 2288.7 0 0 0 -1270.84-196.61l-553.29 73.05-13.7-103.77z"
       fill="url(#c)"
       opacity=".56"
       id="path149" />
    <path
       d="m195.26 416.13a2149.46 2149.46 0 0 1 1204.86-83.21l-20.13 91.82a2055.46 2055.46 0 0 0 -1152.17 79.56l-470.18 173.62-32.56-88.18 470.18-173.62z"
       fill="url(#d)"
       id="path151" />
  </g>
  <path
     d="m-258.15 719.56 1743.12-517.56 182.93 616.12-1743.1 517.56z"
     fill="#090b11"
     id="path155" />
  <path
     style="fill:#a0a0a0;stroke:none;stroke-width:0.828539"
     d="m -216.93922,856.08746 c -1.33409,-2.21549 -40.29527,-135.60653 -39.75391,-136.1051 0.67189,-0.61879 1739.31833,-516.99042 1740.72993,-516.99042 1.2394,0 183.3089,614.28443 182.2507,614.89566 -0.5088,0.29389 -29.964,9.14889 -65.4562,19.67779 l -64.5312,19.14347 H 659.86757 c -482.03794,0 -876.60099,-0.27963 -876.80679,-0.6214 z"
     id="path280" />
</svg>
